<svg width="32" height="32" viewBox="0 0 32 32" fill="none" xmlns="http://www.w3.org/2000/svg">
<path fill-rule="evenodd" clip-rule="evenodd" d="M5.33335 2.66666C3.86059 2.66666 2.66669 3.86056 2.66669 5.33332V10.6667C2.66669 12.1394 3.86059 13.3333 5.33335 13.3333H10.6667C12.1394 13.3333 13.3334 12.1394 13.3334 10.6667V5.33332C13.3334 3.86056 12.1394 2.66666 10.6667 2.66666H5.33335ZM24 13.3333C26.9455 13.3333 29.3334 10.9455 29.3334 7.99999C29.3334 5.05447 26.9455 2.66666 24 2.66666C21.0545 2.66666 18.6667 5.05447 18.6667 7.99999C18.6667 10.9455 21.0545 13.3333 24 13.3333ZM13.3334 24C13.3334 26.9455 10.9455 29.3333 8.00002 29.3333C5.0545 29.3333 2.66669 26.9455 2.66669 24C2.66669 21.0545 5.0545 18.6667 8.00002 18.6667C10.9455 18.6667 13.3334 21.0545 13.3334 24ZM21.3334 18.6667C19.8606 18.6667 18.6667 19.8606 18.6667 21.3333V26.6667C18.6667 28.1394 19.8606 29.3333 21.3334 29.3333H26.6667C28.1394 29.3333 29.3334 28.1394 29.3334 26.6667V21.3333C29.3334 19.8606 28.1394 18.6667 26.6667 18.6667H21.3334Z" fill="white"/>
</svg>
