<svg width="25" height="24" viewBox="0 0 25 24" fill="none" xmlns="http://www.w3.org/2000/svg">
<path d="M15.5 5V6H17.5V5H15.5ZM17.5 4C17.5 3.44772 17.0523 3 16.5 3C15.9477 3 15.5 3.44772 15.5 4H17.5ZM17.5 5V4H15.5V5H17.5Z" />
<path d="M7.5 5V6H9.5V5H7.5ZM9.5 4C9.5 3.44772 9.05228 3 8.5 3C7.94772 3 7.5 3.44772 7.5 4H9.5ZM9.5 5V4H7.5V5H9.5Z" />
<path fill-rule="evenodd" clip-rule="evenodd" d="M18.513 5H6.48698C4.83732 5 3.5 6.29322 3.5 7.8885V18.1115C3.5 19.7068 4.83732 21 6.48698 21H18.513C20.1627 21 21.5 19.7068 21.5 18.1115V7.8885C21.5 6.29322 20.1627 5 18.513 5ZM4.75 9C4.75 8.58579 5.08579 8.25 5.5 8.25H19.5C19.9142 8.25 20.25 8.58579 20.25 9C20.25 9.41421 19.9142 9.75 19.5 9.75H5.5C5.08579 9.75 4.75 9.41421 4.75 9ZM9.5627 17.022C9.5627 17.5864 9.10095 18.0439 8.53135 18.0439C7.96175 18.0439 7.5 17.5864 7.5 17.022C7.5 16.4575 7.96175 16 8.53135 16C9.10095 16 9.5627 16.4575 9.5627 17.022ZM12.5314 18.0439C13.101 18.0439 13.5627 17.5864 13.5627 17.022C13.5627 16.4575 13.101 16 12.5314 16C11.9618 16 11.5 16.4575 11.5 17.022C11.5 17.5864 11.9618 18.0439 12.5314 18.0439ZM9.5627 13.022C9.5627 13.5864 9.10095 14.0439 8.53135 14.0439C7.96175 14.0439 7.5 13.5864 7.5 13.022C7.5 12.4575 7.96175 12 8.53135 12C9.10095 12 9.5627 12.4575 9.5627 13.022ZM12.5 14C13.0523 14 13.5 13.5523 13.5 13C13.5 12.4477 13.0523 12 12.5 12C11.9477 12 11.5 12.4477 11.5 13C11.5 13.5523 11.9477 14 12.5 14ZM17.5627 13.022C17.5627 13.5864 17.101 14.0439 16.5314 14.0439C15.9618 14.0439 15.5 13.5864 15.5 13.022C15.5 12.4575 15.9618 12 16.5314 12C17.101 12 17.5627 12.4575 17.5627 13.022Z"/>
</svg>
