<svg width="7" height="19" viewBox="0 0 7 19" fill="none" xmlns="http://www.w3.org/2000/svg">
<path d="M1.71875 9.5C1.71875 10.4821 2.51794 11.2812 3.5 11.2812C4.48206 11.2812 5.28125 10.4821 5.28125 9.5C5.28125 8.51794 4.48206 7.71875 3.5 7.71875C2.51794 7.71875 1.71875 8.51794 1.71875 9.5Z" fill="#778A9B"/>
<path d="M1.71875 15.4375C1.71875 16.4196 2.51794 17.2188 3.5 17.2188C4.48206 17.2188 5.28125 16.4196 5.28125 15.4375C5.28125 14.4554 4.48206 13.6562 3.5 13.6562C2.51794 13.6562 1.71875 14.4554 1.71875 15.4375Z" fill="#778A9B"/>
<path d="M1.71875 3.5625C1.71875 4.54456 2.51794 5.34375 3.5 5.34375C4.48206 5.34375 5.28125 4.54456 5.28125 3.5625C5.28125 2.58044 4.48206 1.78125 3.5 1.78125C2.51794 1.78125 1.71875 2.58044 1.71875 3.5625Z" fill="#778A9B"/>
</svg>
