<svg width="23" height="22" viewBox="0 0 23 22" fill="none" xmlns="http://www.w3.org/2000/svg">
<path fill-rule="evenodd" clip-rule="evenodd" d="M5.35001 0.25C2.66107 0.25 0.481262 2.37665 0.481262 5L0.481262 6.55556C0.481262 6.96977 0.825443 7.30556 1.25001 7.30556C1.67458 7.30556 2.01876 6.96977 2.01876 6.55556V5C2.01876 3.20507 3.51021 1.75 5.35001 1.75L6.94446 1.75C7.36903 1.75 7.71321 1.41421 7.71321 1C7.71321 0.585786 7.36903 0.25 6.94446 0.25L5.35001 0.25ZM16.0556 0.25C15.631 0.25 15.2868 0.585786 15.2868 1C15.2868 1.41421 15.631 1.75 16.0556 1.75L17.65 1.75C19.4898 1.75 20.9813 3.20507 20.9813 5V6.55556C20.9813 6.96977 21.3254 7.30556 21.75 7.30556C22.1746 7.30556 22.5188 6.96977 22.5188 6.55556V5C22.5188 2.37665 20.3389 0.25 17.65 0.25L16.0556 0.25ZM2.01876 15.4444C2.01876 15.0302 1.67458 14.6944 1.25001 14.6944C0.825443 14.6944 0.481262 15.0302 0.481262 15.4444L0.481262 17C0.481262 19.6234 2.66107 21.75 5.35001 21.75H6.94446C7.36903 21.75 7.71321 21.4142 7.71321 21C7.71321 20.5858 7.36903 20.25 6.94446 20.25H5.35001C3.51021 20.25 2.01876 18.7949 2.01876 17V15.4444ZM22.5188 15.4444C22.5188 15.0302 22.1746 14.6944 21.75 14.6944C21.3254 14.6944 20.9813 15.0302 20.9813 15.4444V17C20.9813 18.7949 19.4898 20.25 17.65 20.25H16.0556C15.631 20.25 15.2868 20.5858 15.2868 21C15.2868 21.4142 15.631 21.75 16.0556 21.75H17.65C20.3389 21.75 22.5188 19.6234 22.5188 17V15.4444ZM11.5 16C14.3305 16 16.625 13.7614 16.625 11C16.625 8.23858 14.3305 6 11.5 6C8.66955 6 6.37501 8.23858 6.37501 11C6.37501 13.7614 8.66955 16 11.5 16Z" fill="white"/>
</svg>
