<svg width="19" height="19" viewBox="0 0 19 19" fill="none" xmlns="http://www.w3.org/2000/svg">
<path d="M6.79406 17.843V14.9295C6.79405 14.1912 7.39274 13.5913 8.13431 13.5867H10.8572C11.6021 13.5867 12.2059 14.1879 12.2059 14.9295V17.8345C12.2059 18.4749 12.7249 18.9953 13.368 19H15.2257C16.0933 19.0022 16.9262 18.6606 17.5405 18.0506C18.1548 17.4407 18.5 16.6124 18.5 15.7486V7.47254C18.5 6.77481 18.1893 6.11297 17.6517 5.66532L11.3407 0.640554C10.2375 -0.238333 8.66193 -0.209942 7.59142 0.708114L1.41612 5.66532C0.853123 6.09977 0.516628 6.76357 0.5 7.47254V15.7402C0.5 17.5405 1.96594 19 3.77427 19H5.58954C5.89922 19.0022 6.19699 18.8813 6.41676 18.6641C6.63654 18.4469 6.76014 18.1513 6.76013 17.843H6.79406Z"/>
</svg>
