<svg width="12" height="12" viewBox="0 0 12 12" fill="none" xmlns="http://www.w3.org/2000/svg">
<path d="M0 5.3002C0 3.77586 1.19823 2.53753 2.67321 2.53753C4.14818 2.53753 5.34642 3.77586 5.34642 5.3002C5.34642 5.47363 5.32875 5.64097 5.29931 5.80527C4.86948 5.61968 4.40137 5.51623 3.90677 5.51623C2.60844 5.51623 1.46909 6.23428 0.836114 7.30223C0.323847 6.79716 0 6.08824 0 5.3002ZM4.48675 9.23428C4.48675 8.3428 4.79293 7.52434 5.29931 6.88235C4.89303 6.62373 4.41609 6.47465 3.90677 6.47465C2.4318 6.47465 1.23356 7.71298 1.23356 9.23732C1.23356 10.7617 2.4318 12 3.90677 12C4.41609 12 4.89303 11.8479 5.29931 11.5893C4.79293 10.9473 4.48675 10.1258 4.48675 9.23428ZM9.32385 9.0213C8.02257 9.0213 6.88616 8.30325 6.25319 7.23225C5.73798 7.73732 5.41413 8.44625 5.41413 9.23732C5.41413 10.7617 6.61237 12 8.08734 12C9.56232 12 10.7606 10.7617 10.7606 9.23732C10.7606 9.0639 10.7429 8.89655 10.7134 8.73529C10.2836 8.91785 9.81551 9.0213 9.32385 9.0213ZM9.58587 2.55274C9.58881 2.62272 9.59764 2.6927 9.59764 2.76268C9.59764 4.50609 8.42885 5.96957 6.86261 6.3712C7.26595 7.36613 8.21982 8.06288 9.32679 8.06288C10.8018 8.06288 12 6.82454 12 5.3002C11.9971 3.87018 10.9372 2.68966 9.58587 2.55274ZM5.99706 0C4.89009 0 3.93916 0.699797 3.53288 1.69168C5.10206 2.09026 6.2738 3.55375 6.2738 5.3002C6.2738 5.37018 6.27085 5.44016 6.26497 5.51014C7.61335 5.37018 8.67027 4.18966 8.67027 2.76268C8.67027 1.23834 7.46909 0 5.99706 0Z"/>
</svg>
