<svg width="24" height="24" viewBox="0 0 24 24" fill="none" xmlns="http://www.w3.org/2000/svg">
<path d="M0 10.6004C0 7.55172 2.39647 5.07505 5.34642 5.07505C8.29637 5.07505 10.6928 7.55172 10.6928 10.6004C10.6928 10.9473 10.6575 11.2819 10.5986 11.6105C9.73896 11.2394 8.80275 11.0325 7.81354 11.0325C5.21688 11.0325 2.93817 12.4686 1.67223 14.6045C0.647694 13.5943 0 12.1765 0 10.6004ZM8.9735 18.4686C8.9735 16.6856 9.58587 15.0487 10.5986 13.7647C9.78607 13.2475 8.83219 12.9493 7.81354 12.9493C4.86359 12.9493 2.46712 15.426 2.46712 18.4746C2.46712 21.5233 4.86359 24 7.81354 24C8.83219 24 9.78607 23.6957 10.5986 23.1785C9.58587 21.8945 8.9735 20.2515 8.9735 18.4686ZM18.6477 18.0426C16.0451 18.0426 13.7723 16.6065 12.5064 14.4645C11.476 15.4746 10.8283 16.8925 10.8283 18.4746C10.8283 21.5233 13.2247 24 16.1747 24C19.1246 24 21.5211 21.5233 21.5211 18.4746C21.5211 18.1278 21.4858 17.7931 21.4269 17.4706C20.5672 17.8357 19.631 18.0426 18.6477 18.0426ZM19.1717 5.10548C19.1776 5.24544 19.1953 5.3854 19.1953 5.52536C19.1953 9.01217 16.8577 11.9391 13.7252 12.7424C14.5319 14.7323 16.4396 16.1258 18.6536 16.1258C21.6035 16.1258 24 13.6491 24 10.6004C23.9941 7.74037 21.8744 5.37931 19.1717 5.10548ZM11.9941 0C9.78018 0 7.87831 1.39959 7.06575 3.38337C10.2041 4.18053 12.5476 7.10751 12.5476 10.6004C12.5476 10.7404 12.5417 10.8803 12.5299 11.0203C15.2267 10.7404 17.3405 8.37931 17.3405 5.52536C17.3405 2.47667 14.9382 0 11.9941 0Z" fill="white"/>
</svg>
