<svg width="24" height="24" viewBox="0 0 24 24" fill="none" xmlns="http://www.w3.org/2000/svg">
<path d="M14.5298 6.24922C15.3247 6.40401 16.0553 6.79205 16.628 7.36365C17.2007 7.93525 17.5895 8.66441 17.7446 9.45782M14.5298 3C16.1814 3.18312 17.7214 3.9213 18.8972 5.09331C20.0729 6.26533 20.8144 7.80154 21 9.4497M20.1861 15.9319V18.3688C20.1871 18.595 20.1406 18.819 20.0498 19.0262C19.959 19.2335 19.8258 19.4196 19.6588 19.5725C19.4918 19.7255 19.2946 19.8419 19.0799 19.9144C18.8652 19.9869 18.6377 20.0138 18.4119 19.9934C15.9075 19.7218 13.5019 18.8677 11.3883 17.4996C9.42189 16.2525 7.7547 14.5885 6.50516 12.6258C5.12971 10.5067 4.27375 8.09396 4.00661 5.58313C3.98627 5.3585 4.01301 5.1321 4.08514 4.91836C4.15727 4.70461 4.2732 4.5082 4.42555 4.34162C4.5779 4.17504 4.76334 4.04195 4.97005 3.95082C5.17675 3.85969 5.40021 3.81252 5.62619 3.8123H8.06777C8.46274 3.80842 8.84565 3.94802 9.14512 4.20508C9.4446 4.46214 9.64021 4.81911 9.69549 5.20947C9.79854 5.98933 9.98966 6.75506 10.2652 7.49204C10.3747 7.78279 10.3984 8.09876 10.3335 8.40254C10.2686 8.70631 10.1178 8.98515 9.89895 9.20601L8.86535 10.2376C10.0239 12.2713 11.711 13.9551 13.7485 15.1115L14.7821 14.0798C15.0034 13.8614 15.2828 13.7109 15.5871 13.6461C15.8915 13.5814 16.2081 13.605 16.4994 13.7143C17.2377 13.9893 18.0049 14.1801 18.7863 14.2829C19.1816 14.3386 19.5427 14.5373 19.8008 14.8414C20.0589 15.1454 20.196 15.5335 20.1861 15.9319Z" stroke="#A6192E" stroke-width="1.5" stroke-linecap="round" stroke-linejoin="round"/>
</svg>
