<svg width="20" height="20" viewBox="0 0 20 20" fill="none" xmlns="http://www.w3.org/2000/svg">
<rect width="20" height="20" rx="10" fill="white"/>
<path d="M2 9.06694C2 7.03448 3.59764 5.38337 5.56428 5.38337C7.53091 5.38337 9.12856 7.03448 9.12856 9.06694C9.12856 9.29817 9.10501 9.5213 9.06575 9.74037C8.49264 9.4929 7.8685 9.35497 7.20903 9.35497C5.47792 9.35497 3.95878 10.3124 3.11482 11.7363C2.4318 11.0629 2 10.1176 2 9.06694ZM7.98234 14.3124C7.98234 13.1237 8.39058 12.0325 9.06575 11.1765C8.52404 10.8316 7.88813 10.6329 7.20903 10.6329C5.24239 10.6329 3.64475 12.284 3.64475 14.3164C3.64475 16.3489 5.24239 18 7.20903 18C7.88813 18 8.52404 17.7972 9.06575 17.4523C8.39058 16.5963 7.98234 15.501 7.98234 14.3124ZM14.4318 14.0284C12.6968 14.0284 11.1816 13.071 10.3376 11.643C9.65064 12.3164 9.21884 13.2617 9.21884 14.3164C9.21884 16.3489 10.8165 18 12.7831 18C14.7498 18 16.3474 16.3489 16.3474 14.3164C16.3474 14.0852 16.3238 13.8621 16.2846 13.6471C15.7115 13.8905 15.0873 14.0284 14.4318 14.0284ZM14.7812 5.40365C14.7851 5.49696 14.7969 5.59026 14.7969 5.68357C14.7969 8.00811 13.2385 9.95943 11.1501 10.4949C11.6879 11.8215 12.9598 12.7505 14.4357 12.7505C16.4024 12.7505 18 11.0994 18 9.06694C17.9961 7.16024 16.5829 5.58621 14.7812 5.40365ZM9.99608 2C8.52012 2 7.25221 2.93306 6.7105 4.25558C8.80275 4.78702 10.3651 6.73834 10.3651 9.06694C10.3651 9.16024 10.3611 9.25355 10.3533 9.34686C12.1511 9.16024 13.5604 7.58621 13.5604 5.68357C13.5604 3.65112 11.9588 2 9.99608 2Z" fill="#A6192E"/>
</svg>
