<svg width="18" height="18" viewBox="0 0 18 18" fill="none" xmlns="http://www.w3.org/2000/svg">
<g clip-path="url(#clip0_1_654)">
<path d="M17.5883 15.5996L14.7112 12.7225C15.6294 11.4129 16.1695 9.81885 16.1721 8.09862C16.1788 3.69354 12.6244 0.0724814 8.21991 0.00132517C3.64826 -0.0725381 -0.0725381 3.64829 0.00132518 8.21991C0.0724814 12.6244 3.69354 16.1787 8.09862 16.1721C9.81885 16.1695 11.4129 15.6294 12.7225 14.7112L15.5996 17.5883C16.1488 18.1375 17.0392 18.1375 17.5883 17.5883C18.1375 17.0392 18.1375 16.1488 17.5883 15.5996ZM8.08617 13.3596C5.1784 13.3596 2.81274 10.9939 2.81274 8.08617C2.81274 5.1784 5.1784 2.81274 8.08617 2.81274C10.9939 2.81274 13.3596 5.1784 13.3596 8.08617C13.3596 10.9939 10.9939 13.3596 8.08617 13.3596Z" fill="white"/>
</g>
<defs>
<clipPath id="clip0_1_654">
<rect width="18" height="18" fill="white"/>
</clipPath>
</defs>
</svg>
