<svg width="24" height="24" viewBox="0 0 24 24" fill="none" xmlns="http://www.w3.org/2000/svg">
<path d="M12.1667 20.3333C16.677 20.3333 20.3333 16.677 20.3333 12.1667C20.3333 7.65634 16.677 4 12.1667 4C7.65634 4 4 7.65634 4 12.1667C4 16.677 7.65634 20.3333 12.1667 20.3333Z" stroke="#A6192E" stroke-width="1.5" stroke-linecap="round" stroke-linejoin="round"/>
<path d="M4.53711 9.25H19.7971" stroke="#A6192E" stroke-width="1.5" stroke-linecap="round" stroke-linejoin="round"/>
<path d="M4.53711 15.084H19.7971" stroke="#A6192E" stroke-width="1.5" stroke-linecap="round" stroke-linejoin="round"/>
<path d="M12.166 20.3333C14.099 20.3333 15.666 16.677 15.666 12.1667C15.666 7.65634 14.099 4 12.166 4C10.233 4 8.66602 7.65634 8.66602 12.1667C8.66602 16.677 10.233 20.3333 12.166 20.3333Z" stroke="#A6192E" stroke-width="1.5" stroke-linecap="round" stroke-linejoin="round"/>
</svg>
