<svg width="21" height="18" viewBox="0 0 21 18" fill="none" xmlns="http://www.w3.org/2000/svg">
<path d="M16.356 0C18.64 0 20.499 1.84201 20.499 4.10514L20.5 6.78245C20.5 6.97864 20.421 7.16889 20.281 7.30761C20.14 7.44732 19.95 7.5256 19.75 7.5256C18.929 7.5256 18.261 8.18749 18.261 9.00099C18.261 9.81449 18.929 10.4764 19.75 10.4764C20.164 10.4764 20.5 10.8093 20.5 11.2195V13.8958C20.5 16.159 18.642 18 16.358 18H4.643C2.359 18 0.5 16.159 0.5 13.8958V11.2195C0.5 10.8093 0.836 10.4764 1.25 10.4764C2.072 10.4764 2.74 9.81449 2.74 9.00099C2.74 8.2083 2.099 7.6118 1.25 7.6118C1.051 7.6118 0.861 7.53352 0.72 7.39381C0.579 7.2541 0.5 7.06485 0.5 6.86866L0.502 4.10514C0.502 1.84201 2.36 0 4.644 0H16.356ZM10.502 5.15347C10.218 5.15347 9.964 5.31003 9.837 5.56171L9.108 7.02521L7.482 7.26005C7.201 7.29968 6.971 7.48993 6.882 7.75746C6.794 8.02499 6.865 8.31432 7.069 8.51051L8.248 9.64802L7.97 11.2562C7.922 11.5336 8.035 11.8091 8.265 11.9746C8.395 12.0667 8.546 12.1143 8.699 12.1143C8.816 12.1143 8.934 12.0855 9.042 12.0291L10.5 11.2701L11.955 12.0271C12.207 12.1608 12.506 12.14 12.735 11.9736C12.966 11.8091 13.079 11.5336 13.031 11.2562L12.752 9.64802L13.931 8.51051C14.136 8.31432 14.207 8.02499 14.118 7.75746C14.03 7.48993 13.8 7.29968 13.522 7.26104L11.893 7.02521L11.164 5.5627C11.039 5.31102 10.785 5.15446 10.502 5.15347Z" />
</svg>
