<svg width="24" height="24" viewBox="0 0 24 24" fill="none" xmlns="http://www.w3.org/2000/svg">
<path d="M5.98955 5.98961C6.38008 5.59908 7.01324 5.59908 7.40377 5.98961L12 10.5858L16.5962 5.98961C16.9867 5.59909 17.6198 5.59909 18.0104 5.98961C18.4009 6.38014 18.4009 7.0133 18.0104 7.40383L13.4142 12L18.0104 16.5963C18.401 16.9868 18.401 17.62 18.0104 18.0105C17.6199 18.401 16.9867 18.401 16.5962 18.0105L11.9992 13.4149L7.40376 18.0104C7.01324 18.401 6.38007 18.401 5.98955 18.0104C5.59902 17.6199 5.59902 16.9867 5.98955 16.5962L10.585 12.0007L5.98955 7.40383C5.59903 7.0133 5.59903 6.38014 5.98955 5.98961Z" fill="#212122"/>
</svg>
