<svg width="68" height="71" viewBox="0 0 68 71" fill="none" xmlns="http://www.w3.org/2000/svg">
<path d="M32.9484 45.6567C34.2022 43.9559 35.5368 43.2321 37.9231 42.7617V42.0741H30.0769V42.7617C32.6653 42.9426 33.1102 44.1006 33.1102 44.7882C33.1102 45.15 32.908 45.6567 32.7058 46.0185L32.9484 45.6567Z" fill="#D8BE95"/>
<path d="M20.923 56.537H28.7692V55.8495C26.1808 55.6685 25.7359 54.5105 25.7359 53.823C25.7359 53.4611 25.9381 52.9545 26.1403 52.5926L25.8977 52.9183C24.6439 54.6191 23.3092 55.3428 20.923 55.8133V56.537Z" fill="#D8BE95"/>
<path d="M28.2961 42.0741H20.923V42.756C21.8017 42.9354 22.5275 43.1507 23.1388 43.4737L32.3073 55.4245C31.8871 55.6399 31.314 55.7834 30.5118 55.8552V56.5371H37.923V55.8552C37.1207 55.6757 36.4714 55.4963 35.8601 55.2092L26.577 43.1507C26.9972 42.9713 27.532 42.8278 28.2961 42.756V42.0741Z" fill="#D8BE95"/>
<path d="M43.9493 55.2092V43.1507C44.32 42.9713 45.0952 42.8278 45.7692 42.756V42.0741H39.2308V42.756C39.8711 42.7919 40.68 42.9354 41.0508 43.1507V55.2092C40.5452 55.4604 39.9385 55.6757 39.2308 55.8552V56.5371H45.7692V55.8552C45.0615 55.6757 44.4885 55.4604 43.9493 55.2092Z" fill="#D8BE95"/>
<path fill-rule="evenodd" clip-rule="evenodd" d="M21.3217 62.9181L23.8389 61.8606L25.2085 60.2745H42.6064L43.9761 61.8606L46.4932 62.9181V63.9378H21.3217V62.9181ZM46.6413 65.6372H21.2107L19.2118 67.9787L15.5471 69.5271V71H52.3419V69.5271L48.6772 67.9787L46.6413 65.6372ZM68 46.1878V47.3207C63.8171 47.3207 64.6315 51.7771 57.006 51.7771C49.3805 51.7771 50.1949 47.3207 46.012 47.3207V46.1878H47.5297L56.2657 16.2016C52.2678 16.5037 46.8263 14.2755 41.8661 13.4069C40.5705 13.1803 39.8672 13.1803 38.8677 13.1803C37.276 13.6713 36.1655 14.5777 35.8694 16.0505C35.6473 17.259 36.2395 30.0239 37.4611 37.8793C37.5351 38.2947 37.5721 38.7101 37.5721 39.05H30.4279C30.4279 38.6723 30.4649 38.2947 30.5389 37.8793C31.7605 30.0617 32.3528 17.259 32.1307 16.0505C31.8345 14.5777 30.724 13.709 29.1323 13.1803C28.1328 13.1803 27.4665 13.1803 26.1339 13.4069C21.1737 14.2755 15.7322 16.5037 11.7344 16.2016L20.4703 46.1878H21.988V47.3207C17.8051 47.3207 18.6195 51.7771 10.994 51.7771C3.36853 51.7771 4.18292 47.3207 0 47.3207V46.1878H1.51769L10.3277 15.9372C10.0316 15.8617 9.73545 15.7484 9.43931 15.5973C7.29233 14.5777 6.88515 12.7271 7.77355 11.6319C8.62494 10.6122 10.1056 10.4612 11.031 11.5186C11.8824 12.4628 11.5863 14.2 10.2907 14.3511C9.21721 14.4644 8.06969 13.4447 8.66196 12.3117C7.92162 13.2559 8.18074 14.0489 8.92107 14.5399C9.6244 15.0309 10.3277 15.1441 11.1791 15.1819C17.509 15.484 22.2471 10.8766 30.4649 10.6878C31.5754 10.5367 33.2782 9.97021 32.945 7.89309C32.7229 6.45798 31.0942 6.91117 32.4268 4.98511C32.4268 4.98511 32.0566 4.19202 32.834 3.92766C32.834 3.92766 32.3157 3.6633 33.9815 0C35.6473 3.6633 35.129 3.92766 35.129 3.92766C35.9064 4.22979 35.5362 4.98511 35.5362 4.98511C36.8688 6.91117 35.2401 6.42021 35.018 7.89309C34.6848 10.008 36.4246 10.5745 37.4981 10.6878C45.7158 10.8388 50.454 15.484 56.8579 15.1819C57.6723 15.1441 58.3756 15.0309 59.1159 14.5399C59.8563 14.0489 60.1154 13.2559 59.3751 12.3117C59.9673 13.4447 58.7828 14.5021 57.7463 14.3511C56.4507 14.2 56.1546 12.4628 57.006 11.5186C57.9314 10.4612 59.4121 10.6122 60.2635 11.6319C61.1519 12.7271 60.7447 14.5777 58.5977 15.5973C58.3016 15.7484 58.0054 15.8239 57.7093 15.9372L66.5193 46.1878H68ZM10.957 16.8436L2.4061 46.1878H19.5079L10.957 16.8436ZM65.5199 46.1878L56.969 16.8059L48.4551 46.1878H65.5199Z" fill="#D8BE95"/>
</svg>
