<svg width="16" height="16" viewBox="0 0 16 16" fill="none" xmlns="http://www.w3.org/2000/svg">
<path d="M7.90013 8.94138C8.58212 8.94138 9.13498 8.39025 9.13498 7.71039C9.13498 7.03053 8.58212 6.4794 7.90013 6.4794C7.21814 6.4794 6.66528 7.03053 6.66528 7.71039C6.66528 8.39025 7.21814 8.94138 7.90013 8.94138Z" fill="#FF4141"/>
<path d="M5.72674 5.23874C4.27785 6.58908 4.27785 8.77841 5.72674 10.1287M10.0734 10.1287C11.5223 8.77841 11.5223 6.58908 10.0734 5.23874" stroke="#FF4141" stroke-width="0.666667" stroke-linecap="round" stroke-linejoin="round"/>
<path d="M4.05803 3.88049C1.93618 5.99571 1.93618 9.42517 4.05803 11.5404M11.7419 11.5404C13.8638 9.42517 13.8638 5.99571 11.7419 3.88049" stroke="#FF4141" stroke-width="0.666667" stroke-linecap="round" stroke-linejoin="round"/>
</svg>
