<svg width="24" height="24" viewBox="0 0 24 24" fill="none" xmlns="http://www.w3.org/2000/svg">
<path d="M4.45549 13.88L3.6934 13.2326H3.6934L4.45549 13.88ZM5.33476 11.8385L4.34111 11.7259L5.33476 11.8385ZM18.6652 11.8385L19.6589 11.7259V11.7259L18.6652 11.8385ZM19.5445 13.88L20.3066 13.2326L19.5445 13.88ZM18.3204 8.79403L17.3267 8.9066V8.9066L18.3204 8.79403ZM5.67964 8.79403L6.67328 8.9066L5.67964 8.79403ZM15.9364 19.3509C16.1302 18.8338 15.8681 18.2574 15.3509 18.0636C14.8338 17.8698 14.2574 18.1319 14.0636 18.6491L15.9364 19.3509ZM9.9364 18.6491C9.74258 18.1319 9.16622 17.8698 8.64906 18.0636C8.1319 18.2574 7.86978 18.8338 8.0636 19.3509L9.9364 18.6491ZM18.1699 16H5.83014V18H18.1699V16ZM17.3267 8.9066L17.6716 11.9511L19.6589 11.7259L19.314 8.68147L17.3267 8.9066ZM6.3284 11.9511L6.67328 8.9066L4.68599 8.68147L4.34111 11.7259L6.3284 11.9511ZM5.21758 14.5275C5.83481 13.801 6.22065 12.9023 6.3284 11.9511L4.34111 11.7259C4.27748 12.2877 4.05012 12.8127 3.6934 13.2326L5.21758 14.5275ZM17.6716 11.9511C17.7794 12.9023 18.1652 13.801 18.7824 14.5275L20.3066 13.2326C19.9499 12.8127 19.7225 12.2877 19.6589 11.7259L17.6716 11.9511ZM5.83014 16C5.17086 16 4.69832 15.1387 5.21758 14.5275L3.6934 13.2326C2.14586 15.0541 3.35077 18 5.83014 18V16ZM18.1699 18C20.6492 18 21.8541 15.0541 20.3066 13.2326L18.7824 14.5275C19.3017 15.1387 18.8291 16 18.1699 16V18ZM19.314 8.68147C18.8852 4.89602 15.7608 2 12 2V4C14.6973 4 17.0072 6.08569 17.3267 8.9066L19.314 8.68147ZM6.67328 8.9066C6.99283 6.08569 9.30271 4 12 4V2C8.23918 2 5.11481 4.89602 4.68599 8.68147L6.67328 8.9066ZM14.0636 18.6491C13.7789 19.4088 12.9844 20 12 20V22C13.7856 22 15.3478 20.9216 15.9364 19.3509L14.0636 18.6491ZM12 20C11.0156 20 10.2211 19.4088 9.9364 18.6491L8.0636 19.3509C8.65224 20.9216 10.2144 22 12 22V20Z" fill="white"/>
</svg>
