<svg width="55" height="50" viewBox="0 0 55 50" fill="none" xmlns="http://www.w3.org/2000/svg">
<path fill-rule="evenodd" clip-rule="evenodd" d="M15.4612 42C18.9157 45.1084 23.4869 47 28.4999 47H49.9999C51.6568 47 52.9999 45.6569 52.9999 44V27.5C52.9999 21.8293 50.5794 16.724 46.7151 13.1608C46.9023 14.2458 46.9999 15.3615 46.9999 16.5V22.5C46.9999 33.2696 38.2695 42 27.4999 42H15.4612Z" fill="white"/>
<path d="M0 19.5C0 8.73045 8.73045 0 19.5 0H24.5C35.2696 0 44 8.73045 44 19.5V19.5C44 30.2696 35.2696 39 24.5 39H3C1.34315 39 0 37.6569 0 36V19.5Z" fill="white"/>
</svg>
