<svg width="19" height="19" viewBox="0 0 19 19" fill="none" xmlns="http://www.w3.org/2000/svg">
<path d="M16.4863 8.95445L10.7 3.16814C10.5988 3.06702 10.4699 2.99816 10.3296 2.97026C10.1894 2.94237 10.044 2.95669 9.91182 3.01142C9.77967 3.06616 9.66672 3.15884 9.58724 3.27775C9.50777 3.39667 9.46533 3.53648 9.4653 3.67951V6.24356C7.48949 6.42641 5.65301 7.33997 4.31527 8.80547C2.97752 10.271 2.23479 12.1829 2.23242 14.1672V15.2521C2.23254 15.4023 2.27937 15.5486 2.36643 15.671C2.45349 15.7933 2.57645 15.8855 2.71827 15.9348C2.86009 15.9841 3.01373 15.988 3.15789 15.946C3.30204 15.904 3.42957 15.8183 3.52277 15.7006C4.23137 14.8579 5.1008 14.1649 6.08027 13.6621C7.05974 13.1592 8.1296 12.8566 9.22734 12.772C9.2635 12.7676 9.35391 12.7604 9.4653 12.7532V15.2521C9.46533 15.3951 9.50777 15.535 9.58724 15.6539C9.66672 15.7728 9.77967 15.8655 9.91182 15.9202C10.044 15.9749 10.1894 15.9893 10.3296 15.9614C10.4699 15.9335 10.5988 15.8646 10.7 15.7635L16.4863 9.97717C16.6218 9.84154 16.698 9.6576 16.698 9.46581C16.698 9.27402 16.6218 9.09008 16.4863 8.95445ZM10.9119 13.5061V11.9973C10.9119 11.8055 10.8357 11.6215 10.7 11.4859C10.5644 11.3502 10.3804 11.274 10.1886 11.274C10.0041 11.274 9.25121 11.3102 9.05881 11.3355C7.10945 11.5151 5.2539 12.2557 3.71661 13.4678C3.8911 11.8725 4.64787 10.3977 5.84203 9.32561C7.03619 8.25356 8.58381 7.65965 10.1886 7.65759C10.3804 7.65759 10.5644 7.58139 10.7 7.44574C10.8357 7.3101 10.9119 7.12613 10.9119 6.9343V5.42553L14.9522 9.46581L10.9119 13.5061Z" fill="white"/>
</svg>
